<svg width="43" height="43" viewBox="0 0 43 43" fill="none" xmlns="http://www.w3.org/2000/svg">
<path d="M21.5042 7.24785L5.96705 22.7724H9.9983V36.4492H16.4609V26.875C16.4609 25.947 17.2126 25.1953 18.1406 25.1953H24.8593C25.7874 25.1953 26.539 25.947 26.539 26.875V36.4492H33.0016V22.7724H37.0371L22.4742 8.21787L21.5042 7.24785ZM39.7498 25.0063C39.4978 25.2583 39.1997 25.4599 38.8763 25.59C39.1997 25.4557 39.4978 25.2583 39.7498 25.0063ZM2.5027 23.5492C2.71266 24.8216 3.82125 25.7958 5.1524 25.7958H5.1902C3.85065 25.7958 2.71686 24.83 2.5027 23.5492ZM2.4691 22.9991C2.4733 22.8689 2.4901 22.743 2.5111 22.617C2.4859 22.7388 2.4733 22.8689 2.4691 22.9991Z" fill="black" fill-opacity="0.15"/>
<path d="M39.9346 21.416C39.9346 21.4118 39.9304 21.4118 39.9304 21.4076L39.8548 21.3194C39.8506 21.3152 39.8464 21.3068 39.838 21.3026C39.8086 21.269 39.775 21.2355 39.7456 21.2019L23.5199 4.98867L22.4323 3.90107C22.1845 3.6549 21.8493 3.51674 21.5 3.51674C21.1507 3.51674 20.8156 3.6549 20.5678 3.90107L3.25443 21.2061C2.94165 21.5172 2.71082 21.9009 2.58256 22.323L2.55736 22.4112L2.54476 22.4574L2.53217 22.5078C2.52377 22.5372 2.51957 22.5666 2.51537 22.596C2.51537 22.6002 2.51537 22.6086 2.51117 22.6128C2.48597 22.7388 2.47338 22.8647 2.46918 22.9949V23.1335C2.46918 23.1545 2.46918 23.1755 2.47338 23.1965C2.47338 23.2175 2.47338 23.2343 2.47758 23.2553C2.47758 23.2763 2.48177 23.2973 2.48177 23.3183C2.48177 23.3435 2.48597 23.3687 2.49017 23.3938C2.49017 23.4064 2.49437 23.419 2.49437 23.4316L2.50697 23.5366V23.5408C2.72113 24.8216 3.85912 25.7874 5.19447 25.7874H6.97914V39.4727H36.0251V25.7958H37.8476C38.2087 25.7958 38.5573 25.7244 38.8764 25.59C39.1955 25.4557 39.4937 25.2583 39.7498 25.0063C40 24.757 40.1983 24.4604 40.333 24.1339C40.4678 23.8074 40.5365 23.4573 40.5351 23.1041C40.5351 22.4868 40.3251 21.8947 39.9346 21.416ZM23.8516 36.4492H19.1485V27.8828H23.8516V36.4492ZM33.0017 22.7724V36.4492H26.5391V26.875C26.5391 25.947 25.7874 25.1953 24.8594 25.1953H18.1407C17.2126 25.1953 16.461 25.947 16.461 26.875V36.4492H9.99838V22.7724H5.96713L21.5042 7.24785L22.4743 8.21787L37.0371 22.7724H33.0017Z" fill="black"/>
</svg>
