<svg width="42" height="42" viewBox="0 0 42 42" fill="none" xmlns="http://www.w3.org/2000/svg">
<path d="M30.1933 9.91667H11.7559V31.8792C11.7559 34.2475 13.675 35.1575 16.0434 35.1575H25.9058C28.2741 35.1575 30.1933 34.2475 30.1933 31.8792V9.91667ZM18.0833 9.33333V7H23.9166V9.33333" fill="white"/>
<path d="M29.75 21.5833V33.6122L28.175 35H19.25L29.75 21.5833Z" fill="#9B9B9A"/>
<path d="M9.91663 9.33333H32.0833V11.6667H9.91663V9.33333Z" fill="white"/>
<path d="M18.0833 9.33333V7H23.9166V9.33333M29.75 14.5833V32.6667C29.75 33.2855 29.5041 33.879 29.0665 34.3166C28.629 34.7542 28.0355 35 27.4166 35H14.5833C13.9645 35 13.371 34.7542 12.9334 34.3166C12.4958 33.879 12.25 33.2855 12.25 32.6667V14.5833M23.9166 16.4792V32.0833M18.0833 16.4792V32.0833M9.91663 9.33333H32.0833V11.6667H9.91663V9.33333Z" stroke="black" stroke-width="1.55556" stroke-miterlimit="10" stroke-linecap="round" stroke-linejoin="round"/>
</svg>
