<svg width="34" height="34" viewBox="0 0 34 34" fill="none" xmlns="http://www.w3.org/2000/svg">
<path opacity="0.8" d="M8.15322 19.9308L25.2858 2.79819C25.4452 2.63883 25.6614 2.54932 25.8868 2.54932C26.1122 2.54932 26.3283 2.63883 26.4877 2.79819L33.1007 9.41118C33.2601 9.57058 33.3496 9.78675 33.3496 10.0121C33.3496 10.2375 33.2601 10.4537 33.1007 10.6131L15.9681 27.744C15.8399 27.8716 15.6744 27.955 15.4955 27.982L7.68402 29.1822C7.55213 29.2024 7.41733 29.1913 7.29054 29.1497C7.16374 29.1082 7.04851 29.0374 6.95416 28.943C6.85981 28.8487 6.789 28.7335 6.74745 28.6067C6.70591 28.4799 6.6948 28.3451 6.71502 28.2132L7.91522 20.4017C7.94225 20.2228 8.02562 20.0573 8.15322 19.9291V19.9308Z" fill="#9B9B9A"/>
<path fill-rule="evenodd" clip-rule="evenodd" d="M22.2394 1.4518L5.10682 18.581C4.9786 18.709 4.89462 18.8746 4.86712 19.0536L3.66692 26.8651C3.6467 26.997 3.65781 27.1318 3.69936 27.2586C3.7409 27.3854 3.81172 27.5006 3.90606 27.595C4.00041 27.6893 4.11565 27.7601 4.24244 27.8017C4.36924 27.8432 4.50403 27.8543 4.63592 27.8341L12.4474 26.6339C12.6263 26.6069 12.7918 26.5235 12.92 26.3959L30.0526 9.265C30.212 9.1056 30.3015 8.88944 30.3015 8.66405C30.3015 8.43866 30.212 8.2225 30.0526 8.0631L23.4396 1.4501C23.2802 1.29075 23.0641 1.20123 22.8387 1.20123C22.6133 1.20123 22.3971 1.29075 22.2377 1.4501L22.2394 1.4518ZM5.52162 25.9794L6.50252 19.5874L22.8378 3.2538L28.2472 8.6632L11.9119 24.9985L5.52162 25.9794Z" fill="black"/>
<path d="M18.4518 6.9037L19.652 5.7001L25.6649 11.7011L24.463 12.9047L18.4518 6.9037Z" fill="black"/>
</svg>
